<?xml version="1.0" encoding="UTF-8"?>
<svg xmlns="http://www.w3.org/2000/svg" xmlns:xlink="http://www.w3.org/1999/xlink" width="30pt" height="30pt" viewBox="0 0 30 30" version="1.1">
<g id="surface1">
<path style=" stroke:none;fill-rule:nonzero;fill:rgb(100%,100%,100%);fill-opacity:1;" d="M 11.769531 7.660156 C 11.464844 7.667969 11.175781 7.800781 10.960938 8.027344 L 5.128906 13.933594 L 4.316406 14.761719 L 5.128906 15.589844 L 10.960938 21.496094 C 11.417969 21.964844 12.171875 21.976562 12.640625 21.515625 C 13.109375 21.058594 13.121094 20.304688 12.660156 19.835938 L 8.804688 15.941406 L 23.621094 15.941406 C 24.046875 15.949219 24.441406 15.726562 24.65625 15.355469 C 24.871094 14.992188 24.871094 14.535156 24.65625 14.167969 C 24.441406 13.800781 24.046875 13.574219 23.621094 13.582031 L 8.804688 13.582031 L 12.660156 9.6875 C 13.011719 9.347656 13.121094 8.816406 12.921875 8.363281 C 12.722656 7.914062 12.265625 7.632812 11.769531 7.660156 Z M 11.769531 7.660156 "/>
</g>
</svg>
