<?xml version="1.0" encoding="UTF-8"?>
<svg xmlns="http://www.w3.org/2000/svg" xmlns:xlink="http://www.w3.org/1999/xlink" width="20pt" height="20pt" viewBox="0 0 20 20" version="1.1">
<g id="surface1">
<path style=" stroke:none;fill-rule:nonzero;fill:rgb(100%,100%,100%);fill-opacity:1;" d="M 7.847656 5.105469 C 7.640625 5.113281 7.449219 5.203125 7.304688 5.351562 L 3.421875 9.289062 L 2.878906 9.84375 L 3.421875 10.394531 L 7.304688 14.332031 C 7.613281 14.644531 8.117188 14.648438 8.429688 14.34375 C 8.742188 14.039062 8.746094 13.539062 8.4375 13.226562 L 5.867188 10.628906 L 15.75 10.628906 C 16.03125 10.632812 16.296875 10.484375 16.4375 10.238281 C 16.582031 9.992188 16.582031 9.6875 16.4375 9.445312 C 16.296875 9.199219 16.03125 9.046875 15.75 9.054688 L 5.867188 9.054688 L 8.4375 6.460938 C 8.675781 6.230469 8.75 5.878906 8.617188 5.578125 C 8.484375 5.273438 8.179688 5.085938 7.847656 5.105469 Z M 7.847656 5.105469 "/>
</g>
</svg>
